PathFileType	4	(X/Y/Z)	Patient4_TMGait_0pt6_02_right_39.trc.trc
DataRate	CameraRate	NumFrames	NumMarkers	Units	OrigDataRate	OrigDataStartFrame	OrigNumFrames
83.832335329341	83.832335329341	4	33	mm	83.832335329341	53	       141
Frame#	Time	Sacral			L.Shoulder			Chest			R.Shoulder			Neck			R.ASIS			L.ASIS			R.Thigh.Superior			R.Thigh.Lateral			R.Thigh.Inferior			R.Patella			L.Thigh.Superior			L.Thigh.Lateral			L.Thigh.Inferior			L.Patella			L.Shank.Superior			L.Shank.Lateral			L.Shank.Inferior			R.Shank.Superior			R.Shank.Lateral			R.Shank.Inferior			R.Heel			R.Midfoot.Superior			R.Midfoot.Lateral			R.Toe			L.Heel			L.Midfoot.Lateral			L.Midfoot.Superior			L.Toe			L.Elbow			L.Wrist			R.Elbow			R.Wrist			
		X1	Y1	Z1	X2	Y2	Z2	X3	Y3	Z3	X4	Y4	Z4	X5	Y5	Z5	X6	Y6	Z6	X7	Y7	Z7	X8	Y8	Z8	X9	Y9	Z9	X10	Y10	Z10	X11	Y11	Z11	X12	Y12	Z12	X13	Y13	Z13	X14	Y14	Z14	X15	Y15	Z15	X16	Y16	Z16	X17	Y17	Z17	X18	Y18	Z18	X19	Y19	Z19	X20	Y20	Z20	X21	Y21	Z21	X22	Y22	Z22	X23	Y23	Z23	X24	Y24	Z24	X25	Y25	Z25	X26	Y26	Z26	X27	Y27	Z27	X28	Y28	Z28	X29	Y29	Z29	X30	Y30	Z30	X31	Y31	Z31	X32	Y32	Z32	X33	Y33	Z33	

53	47.660285714286	802.901211420257	1017.396845476069	560.039740813788	1002.373422874883	1437.363885714405	375.742139543460	1114.956436559132	1351.887130041316	522.542573733876	1057.082925362934	1430.431896189850	704.193172518163	1026.739962881323	1491.889278686446	526.374316514400	1035.676323126059	939.267848404025	657.539599981593	999.242284713778	962.858724708189	386.047491830507	1068.782413775544	738.477473325548	625.813426610664	987.596576677678	633.816224527307	689.855768603498	1056.488529562199	579.317589557875	603.903466058854	1054.102594200276	490.191629211817	610.061605664686	1092.503680564084	800.012722355397	419.895875195265	1064.800565252469	671.300893024724	340.938748087944	1172.685606593609	620.503109665096	406.826512758960	1199.693251530470	536.454054288489	397.624034598148	1151.071593010838	460.767926460170	388.150667835160	1027.860701737361	378.261669024879	344.033612083460	1060.312317339154	249.930630998832	393.637495114711	1023.278296779604	403.032481107445	619.900069140409	951.057010965820	301.569080687158	683.581037722140	987.615428461464	205.685995025175	619.232492288288	849.819611636752	42.689666608051	591.989676762556	1020.516561412464	97.329660788774	626.399154343513	933.185267361965	36.519315193225	666.961503741671	1141.432433493817	45.017867410171	654.820546021397	902.803741149180	129.330821110282	438.423248660197	966.191011917359	104.703810903995	353.825139028899	1065.153550180279	142.131360407303	370.344522268648	1169.951082869246	58.309979378137	334.246505006631	909.429375531809	1093.109499422228	263.131181723003	975.911570019447	838.577480232740	254.201628108151	1039.767093384508	1097.008364822440	853.113996247037	1235.813419233354	937.303644412424	799.519756895455	
54	47.672214285714	802.340294611888	1018.034160829469	561.395728278548	1001.876990568570	1437.020070710706	375.416744346920	1115.101251538369	1351.338436260330	521.678477817355	1058.718215769913	1430.449445269298	703.501727321264	1027.238847688863	1491.791990953660	525.883739381959	1035.177853161553	939.047479535392	657.458924307712	997.632240314358	962.992189210114	386.086282354404	1066.185239379438	737.626951880141	625.811109322115	984.232150552279	633.675408175610	690.262444699132	1052.234511491575	578.512912351019	604.113335539841	1048.963369328884	489.541595117467	610.315833026247	1090.903909854083	801.418209277579	420.205225298928	1064.027259171071	672.316040322708	341.087778366613	1171.944408397476	622.406094694839	407.221278907852	1200.512061623213	540.036316936159	397.922490705049	1155.592057484013	463.540351917679	388.147369212027	1037.968022744935	374.231696595586	342.777418097997	1077.540072913867	247.604162281718	392.574620420631	1017.815681544391	402.631504867790	620.115835486779	945.151408398242	301.474736540156	683.784134524923	981.114909117367	205.432802549266	619.315963397495	842.653974719630	42.709630022702	592.085174115267	1013.273315580290	97.182520765784	626.311590754357	925.978043462998	36.505555606293	666.967514402053	1134.231923492432	44.781314403918	654.922105810682	927.447102696085	116.988299517064	436.078477210775	992.807874387455	97.157156421672	351.764822596736	1089.058317827464	140.624027026802	369.081260958533	1199.258168309932	63.880751924575	333.222871752819	905.793120967389	1093.083146908533	264.376008008191	960.415287553110	835.916389460074	253.948042627422	1042.643280069647	1097.156526597790	852.421355714616	1242.095437689415	944.561558987332	793.347672354945	
55	47.684142857143	801.912815812763	1018.528310625793	562.535382591681	1001.454151016038	1436.681965487654	375.009542618765	1115.233994336981	1350.770071772942	520.785960304020	1060.187771385235	1430.372565598132	702.751852902264	1027.700648270833	1491.638537566906	525.325100250947	1034.746501073197	938.829672318248	657.291049852204	996.244543051809	963.020341840142	385.996987098313	1063.717431658362	736.750847313132	625.841068769895	980.946657327750	633.481355395462	690.579439787686	1048.158099610294	577.670813369985	604.316381242974	1044.009844429095	488.860982643020	610.535467099028	1089.185148807452	802.282066515368	420.341921013350	1062.819562620199	672.833144904229	341.084688017361	1170.656828106836	623.579244641473	407.450948478526	1200.625671247614	543.036707805751	398.257719667698	1159.429663785418	465.953932202214	388.284706427186	1048.020266737533	370.195797852745	341.143012657559	1094.189328495201	245.740163546493	391.591949478990	1012.506498475174	402.189975714698	620.272560625961	939.348033829534	301.382336213280	683.934581750394	974.677345058471	205.158281082797	619.370007964347	835.487889003627	42.746893979244	592.174557669714	1006.035919704425	97.033654876321	626.211673574291	918.771110454528	36.495602099439	666.953863283035	1127.032506474159	44.543291066870	655.018664390755	951.827444777088	105.804796518096	433.110442848098	1019.309831370111	90.633436211941	349.568069739620	1112.366779241279	139.865491855280	368.159632682554	1227.551844345491	70.315301576376	333.450044235852	901.977067561522	1093.266782114029	265.354857836341	945.780800136735	834.248746480155	253.962189253359	1045.538415041882	1097.000330011519	851.266484338515	1248.031915243181	951.642620497928	786.720180682868	
56	47.696071428571	801.621827509179	1018.875416847558	563.434457623727	1001.094667210479	1436.345467920860	374.516945196888	1115.344420408906	1350.203891054245	519.869754802671	1061.463241826088	1430.225087012488	701.949096198400	1028.111506928608	1491.439346534049	524.692820495506	1034.398476941941	938.623097475267	657.045935382305	995.113881160883	962.955594346624	385.784132713531	1061.397272874244	735.857844818149	625.882772800658	977.764690527148	633.235294828472	690.798804385549	1044.280619457405	576.793013299679	604.499609492505	1039.264969450586	488.142281855653	610.709440888016	1087.419161997980	802.601635341757	420.314325452938	1061.249507548547	672.870612543038	340.914707532344	1168.901485544327	624.016773047408	407.498371249948	1200.081810968817	545.422698270747	398.618115943623	1162.574140547925	467.978202620327	388.526612922513	1057.854494469051	366.226628525766	339.202249836288	1110.034051207372	244.330284873935	390.702638054518	1007.364545556486	401.699519705710	620.359496244694	933.658002961870	301.290418309585	684.024983818955	968.309693384162	204.861270098615	619.386439389334	828.320126759625	42.802245657741	592.251085909934	998.815257761317	96.895915686177	626.117754417968	911.564811236607	36.490629038453	666.919110643210	1119.835893026483	44.308877851600	655.109478375192	975.581239472430	95.854724421551	429.672610675676	1045.285645946751	85.153730998526	347.327190426011	1134.753889464695	139.816142163075	367.568321777642	1254.462598984533	77.472037255339	334.822240934396	897.985203651200	1093.655759369463	266.076927089878	932.139722881284	833.418726697028	254.217415863798	1048.462594184093	1096.560857897739	849.641413834148	1253.613112367037	958.492958967893	779.670285012544	
